<svg width="199" height="30" viewBox="0 0 199 30" fill="none" xmlns="http://www.w3.org/2000/svg">
<path d="M35.3282 18.8041C34.4235 22.0692 31.6662 24.1489 27.7886 24.1489C22.9418 24.1489 19.8721 20.8838 19.8721 15.9485C19.8721 11.0131 22.9741 7.74805 27.8748 7.74805C33.3356 7.74805 36.1576 11.8429 34.6712 16.9399H23.6203C23.9327 19.5153 25.3544 21.0347 27.8425 21.0347C29.5766 21.0347 30.9445 20.2265 31.4723 18.8041H35.3175H35.3282ZM23.685 14.4291H31.3215C31.5369 12.1985 30.2659 10.733 27.8102 10.733C25.3544 10.733 24.0512 12.0368 23.685 14.4291Z" fill="#004441"/>
<path d="M60.9634 13.8364V23.7071H57.4306V14.2028C57.4306 12.22 56.5904 10.8838 54.9209 10.8838C52.7775 10.8838 51.2912 12.9312 51.2912 16.0993V23.7071H47.7583V14.2028C47.7583 12.1877 46.9182 10.8192 45.2164 10.8192C43.1376 10.8192 41.5543 12.8989 41.5543 16.1317V23.7071H38.0215V8.18986H41.5543V10.9485C42.3621 9.11658 44.0962 7.74805 46.4874 7.74805C48.7493 7.74805 50.3972 9.0196 51.0542 11.0347C51.959 8.98727 53.79 7.74805 56.1165 7.74805C59.3155 7.74805 60.9849 10.0433 60.9849 13.8364H60.9634Z" fill="#004441"/>
<path d="M78.8419 18.8041C77.9372 22.0692 75.1798 24.1489 71.3023 24.1489C66.4554 24.1489 63.3857 20.8838 63.3857 15.9485C63.3857 11.0131 66.4877 7.74805 71.3885 7.74805C76.8493 7.74805 79.6713 11.8429 78.1849 16.9399H67.134C67.4464 19.5153 68.8681 21.0347 71.3562 21.0347C73.0903 21.0347 74.4582 20.2265 74.9859 18.8041H78.8311H78.8419ZM67.1986 14.4291H74.8352C75.0506 12.1985 73.7796 10.733 71.3239 10.733C68.8681 10.733 67.5648 12.0368 67.1986 14.4291Z" fill="#004441"/>
<path d="M80.7277 18.1575H84.142C83.9266 20.0864 85.3484 21.2933 87.7718 21.2933C89.6675 21.2933 90.9384 20.5498 90.9384 19.4291C90.9384 16.3256 80.9431 18.5562 80.9431 12.748C80.9431 9.6446 83.8297 7.74805 87.5887 7.74805C91.7463 7.74805 94.7621 10.0756 94.1051 13.5886H90.6584C91.0892 11.8213 89.6998 10.6037 87.5564 10.6037C85.7577 10.6037 84.5729 11.4118 84.5729 12.5325C84.5729 15.6683 94.6005 13.2761 94.6005 19.1812C94.6005 22.317 91.7786 24.1489 87.7395 24.1489C83.3665 24.1489 80.4799 21.9183 80.7277 18.1575Z" fill="#004441"/>
<path d="M110.498 14.8924V23.7071H107.234V21.0024C106.082 22.9851 104.197 24.1381 101.644 24.1381C98.359 24.1381 96.3018 22.2093 96.3018 19.5153C96.3018 16.3795 99.0376 14.483 103.411 14.483C104.617 14.483 105.866 14.6338 106.943 14.8817C106.943 12.5218 106.103 10.8192 103.626 10.8192C101.763 10.8192 100.621 11.7459 100.987 13.4916H97.4219C96.5818 10.0433 99.63 7.74805 103.658 7.74805C108.193 7.74805 110.487 10.5713 110.487 14.8924H110.498ZM107.083 17.5972C106.06 17.2524 104.821 17.0692 103.701 17.0692C101.159 17.0692 99.91 17.9959 99.91 19.4291C99.91 20.6683 100.836 21.3256 102.366 21.3256C104.628 21.3256 106.491 19.8709 107.083 17.5972Z" fill="#004441"/>
<path d="M112.824 18.1575H116.239C116.023 20.0864 117.445 21.2933 119.868 21.2933C121.764 21.2933 123.035 20.5498 123.035 19.4291C123.035 16.3256 113.04 18.5562 113.04 12.748C113.04 9.6446 115.926 7.74805 119.685 7.74805C123.843 7.74805 126.859 10.0756 126.202 13.5886H122.755C123.186 11.8213 121.796 10.6037 119.653 10.6037C117.854 10.6037 116.67 11.4118 116.67 12.5325C116.67 15.6683 126.697 13.2761 126.697 19.1812C126.697 22.317 123.875 24.1489 119.836 24.1489C115.463 24.1489 112.577 21.9183 112.824 18.1575Z" fill="#004441"/>
<path d="M23.0065 30C15.8439 29.2241 11.5464 23.6315 9.3491 17.931C9.33833 17.931 9.32756 17.931 9.30602 17.931H5.17001C2.31573 17.931 0 15.6142 0 12.7586C0 11.3362 0.603168 10.097 1.70179 9.25647C2.9189 8.32974 4.59915 8.02802 6.20401 8.45905C8.91827 9.19181 10.8247 10.9914 11.8695 13.8362C12.1818 13.6746 12.4726 13.4698 12.7527 13.2004C13.7975 12.2091 14.336 10.5496 14.3145 8.42672C14.3145 4.76293 10.6739 3.63147 9.3491 3.63147H0.0107709V0H9.35987C12.8281 0 17.9442 2.67241 17.9442 8.40517C17.9873 12.3815 16.5009 14.6336 15.2623 15.8297C14.616 16.4547 13.8621 16.9397 13.0327 17.2953C14.336 20.0862 16.3178 25.625 23.3943 26.3901L23.0065 30ZM4.73917 11.8966C4.37297 11.8966 4.09292 12.0043 3.92059 12.1336C3.72671 12.2845 3.64055 12.4784 3.64055 12.7586C3.64055 13.6099 4.32988 14.2996 5.18078 14.2996H8.12122C7.29187 12.7047 6.13939 12.2091 5.26695 11.972C5.08384 11.9181 4.90074 11.8966 4.73917 11.8966Z" fill="#004441"/>
<path d="M3.64052 25.9801H0.0107422V17.0254L0.61391 17.715C1.38941 18.5987 2.4665 19.1698 3.64052 19.3206V25.9909V25.9801Z" fill="#004441"/>
<path d="M193.388 6.42969C196.732 6.42969 198.484 8.83174 198.484 12.7919V23.1142H194.784V13.1814C194.784 11.104 193.908 9.70817 192.155 9.70817C189.915 9.70817 188.357 11.8505 188.357 15.1615V23.1142H184.656V13.1814C184.656 11.0715 183.78 9.64325 181.995 9.64325C179.82 9.64325 178.164 11.8181 178.164 15.1939V23.1142H174.464V6.88413H178.164V9.77309C179.008 7.85793 180.826 6.42969 183.325 6.42969C185.695 6.42969 187.415 7.76055 188.097 9.87047C189.038 7.72809 190.954 6.42969 193.388 6.42969Z" fill="#0EB2AC"/>
<path d="M163.419 23.5687C158.453 23.5687 155.142 20.1279 155.142 14.9992C155.142 9.87047 158.453 6.42969 163.419 6.42969C168.353 6.42969 171.696 9.87047 171.696 14.9992C171.696 20.1279 168.353 23.5687 163.419 23.5687ZM163.419 20.3227C166.048 20.3227 167.834 18.2127 167.834 14.9992C167.834 11.7856 166.048 9.67571 163.419 9.67571C160.757 9.67571 159.004 11.7856 159.004 14.9992C159.004 18.2127 160.757 20.3227 163.419 20.3227Z" fill="#0EB2AC"/>
<path d="M145.255 23.5687C140.288 23.5687 136.978 20.1279 136.978 14.9992C136.978 9.83801 140.256 6.42969 145.385 6.42969C150.513 6.42969 153.662 9.87047 152.461 14.8044H148.728C149.345 11.5909 148.014 9.67571 145.352 9.67571C142.561 9.67571 140.84 11.7856 140.84 14.9992C140.84 18.2127 142.593 20.3227 145.287 20.3227C147.235 20.3227 148.598 19.1541 149.28 17.3363H153.273C152.494 20.7122 149.767 23.5687 145.255 23.5687Z" fill="#0EB2AC"/>
<path d="M132.227 23.4722C130.734 23.4722 129.598 22.3361 129.598 20.8429C129.598 19.3497 130.734 18.2461 132.227 18.2461C133.72 18.2461 134.856 19.3497 134.856 20.8429C134.856 22.3361 133.72 23.4722 132.227 23.4722Z" fill="#0EB2AC"/>
</svg>
