<svg width="40" height="40" viewBox="0 0 40 40" fill="none" xmlns="http://www.w3.org/2000/svg">
<circle cx="20" cy="20" r="20" fill="#0EB2AC" fill-opacity="0.1"/>
<g clip-path="url(#clip0_634_3533)">
<path d="M29.1833 17.3247C28.6917 16.8747 28.05 16.6497 27.375 16.6747C26.7083 16.7081 26.0917 16.9997 25.6333 17.4914L22.95 20.4331C22.4917 19.6747 21.6583 19.1664 20.7083 19.1664H13.3333C11.4917 19.1664 10 20.6581 10 22.4997V26.6664C10 28.5081 11.4917 29.9997 13.3333 29.9997H17.4667C19.8417 29.9997 22.1083 28.9831 23.6917 27.2081L29.3667 20.8414C30.275 19.8164 30.1917 18.2414 29.1833 17.3164V17.3247ZM28.125 19.7414L22.45 26.1081C21.1833 27.5247 19.375 28.3414 17.475 28.3414H13.3333C12.4167 28.3414 11.6667 27.5914 11.6667 26.6747V22.5081C11.6667 21.5914 12.4167 20.8414 13.3333 20.8414H20.7167C21.2417 20.8414 21.6667 21.2664 21.6667 21.7914C21.6667 22.2581 21.3167 22.6664 20.85 22.7331L16.55 23.3497C16.0917 23.4164 15.775 23.8331 15.8417 24.2914C15.9083 24.7497 16.3333 25.0664 16.7833 24.9997L21.0833 24.3831C22.0667 24.2414 22.8583 23.5581 23.175 22.6664L26.8667 18.6164C27.0167 18.4497 27.225 18.3497 27.45 18.3414C27.675 18.3414 27.8917 18.4081 28.0583 18.5581C28.4 18.8664 28.425 19.3997 28.1167 19.7414H28.125Z" fill="#0EB2AC"/>
<path d="M17.5003 18.3339H17.817C19.0253 18.3339 20.0003 17.3505 20.0003 16.1505C20.0003 15.0755 19.2336 14.1672 18.1753 13.9922L15.442 13.5339C15.192 13.4922 15.0086 13.2755 15.0086 13.0172C15.0086 12.7339 15.242 12.5005 15.5253 12.5005H17.7253C18.0253 12.5005 18.3003 12.6589 18.4503 12.9172C18.6753 13.3172 19.1836 13.4505 19.592 13.2172C19.992 12.9839 20.1253 12.4755 19.892 12.0755C19.4503 11.3089 18.617 10.8255 17.7253 10.8255H17.5003C17.5003 10.3672 17.1253 9.99219 16.667 9.99219C16.2086 9.99219 15.8336 10.3672 15.8336 10.8255H15.517C14.3086 10.8255 13.3336 11.8089 13.3336 13.0089C13.3336 14.0839 14.1003 14.9922 15.1586 15.1672L17.892 15.6255C18.142 15.6672 18.3253 15.8839 18.3253 16.1422C18.3253 16.4255 18.092 16.6589 17.8086 16.6589H15.6086C15.3086 16.6589 15.0336 16.5005 14.8836 16.2422C14.6503 15.8422 14.142 15.7089 13.742 15.9422C13.342 16.1755 13.2086 16.6839 13.442 17.0839C13.8836 17.8505 14.717 18.3339 15.6086 18.3339H15.8336C15.8336 18.7922 16.2086 19.1672 16.667 19.1672C17.1253 19.1672 17.5003 18.7922 17.5003 18.3339Z" fill="#0EB2AC"/>
</g>
<defs>
<clipPath id="clip0_634_3533">
<rect width="20" height="20" fill="white" transform="translate(10 10)"/>
</clipPath>
</defs>
</svg>
