<svg width="46" height="47" viewBox="0 0 46 47" fill="none" xmlns="http://www.w3.org/2000/svg">
<g clip-path="url(#clip0_634_2989)">
<g clip-path="url(#clip1_634_2989)">
<path d="M24.1913 46.5346C21.6368 45.8439 19.0917 45.1627 16.5372 44.4721C15.629 44.2261 14.7207 43.9706 13.8124 43.7152C13.1028 43.5165 12.4216 43.5922 11.7688 43.9328C11.5039 44.0747 11.2484 44.2355 10.9741 44.3585C10.4916 44.5572 10.151 44.7937 10.1888 45.4276C10.2172 45.8534 9.87659 46.1088 9.45083 46.0994C7.47346 46.0615 5.49608 46.0142 3.52817 45.948C2.9605 45.9291 2.71451 45.6169 2.73343 45.0208C2.82804 41.4918 2.93212 37.9628 3.02673 34.4244C3.04565 33.6958 3.06457 32.9579 3.08349 32.2294C3.10242 31.5671 3.37679 31.3116 4.03907 31.3306C5.88399 31.3684 7.71945 31.4157 9.56437 31.463C10.3875 31.4819 10.6146 31.7469 10.5862 32.5794C10.5767 32.8633 10.5862 33.1471 10.5862 33.4309C11.2295 33.2039 11.8634 32.939 12.5162 32.7592C14.8721 32.1064 17.19 32.2767 19.3661 33.4025C20.7663 34.1216 22.195 34.4906 23.7561 34.4811C25.1279 34.4717 26.5092 34.5568 27.8811 34.5852C29.7166 34.6136 31.1263 35.3799 32.1102 36.941C32.1386 36.9883 32.1765 37.0356 32.2332 37.1113C32.6401 36.9221 33.0374 36.7329 33.4443 36.5436C35.0526 35.7868 36.6516 35.0109 38.2694 34.273C39.9724 33.4972 41.9687 34.0743 42.9905 35.607C43.3974 36.222 43.3311 36.6004 42.7162 36.9978C38.3546 39.8172 34.0025 42.6461 29.6409 45.4466C28.6948 46.0521 27.6067 46.2886 26.4998 46.4589C26.3579 46.4778 26.2065 46.5157 26.0646 46.5535C25.4496 46.5346 24.8252 46.5346 24.1913 46.5346ZM31.1925 38.7292C30.8898 37.2627 29.6598 36.1841 28.2501 36.1179C27.2945 36.0706 26.3389 36.0611 25.3739 36.0233C24.2859 35.9854 23.1884 35.976 22.1004 35.9097C20.8515 35.8246 19.7635 35.238 18.6471 34.7271C16.0263 33.5161 13.434 33.6485 10.8984 35.0582C10.624 35.2096 10.501 35.3894 10.4916 35.7205C10.4348 38.0574 10.3686 40.3849 10.3023 42.7218C10.3023 42.788 10.3118 42.8637 10.3213 42.9299C10.378 42.9394 10.4064 42.9583 10.4348 42.9394C10.5578 42.8826 10.6808 42.8353 10.7943 42.7596C11.9675 42.0595 13.2069 41.9554 14.5125 42.3339C15.9412 42.7596 17.3793 43.157 18.8268 43.5543C20.596 44.0369 22.3558 44.6045 24.1629 44.9357C25.8375 45.2479 27.5405 44.9924 29.007 44.0652C33.0185 41.5107 37.0016 38.9089 40.9942 36.326C41.1267 36.2409 41.2497 36.1557 41.3916 36.0611C40.6253 35.3894 39.7264 35.2664 38.7993 35.7016C37.1057 36.4963 35.4216 37.3005 33.7376 38.0953C33.4064 38.2561 33.0753 38.4075 32.7536 38.5589C32.782 38.8616 32.8104 39.1171 32.8104 39.3725C32.8198 39.9686 32.5265 40.2808 31.9399 40.2619C29.0259 40.1862 26.1024 40.1105 23.1884 40.0253C22.6396 40.0064 22.318 39.6942 22.3274 39.2495C22.3464 38.8049 22.687 38.521 23.2262 38.5305C24.1723 38.5494 25.109 38.5778 26.0551 38.5967C27.7581 38.6346 29.4611 38.6819 31.1925 38.7292ZM4.58781 32.939C4.48374 36.7518 4.37967 40.6025 4.26614 44.5099C5.78938 44.5099 7.24639 44.5099 8.74125 44.5099C8.84532 40.6876 8.94939 36.8464 9.06293 32.939C7.56807 32.939 6.12052 32.939 4.58781 32.939Z" fill="#004441"/>
<path d="M23.4722 32.447C17.4266 32.447 12.5257 27.5461 12.5352 21.5194C12.5352 15.4927 17.455 10.5918 23.4817 10.5918C29.5274 10.5918 34.4188 15.4927 34.4188 21.5289C34.4188 27.5556 29.5179 32.4565 23.4722 32.447ZM23.4533 30.9521C28.6191 30.9711 32.8671 26.7703 32.905 21.5951C32.9334 16.3631 28.7515 12.1245 23.5195 12.0961C18.3254 12.0677 14.0679 16.2779 14.049 21.4626C14.0206 26.6946 18.2308 30.9332 23.4533 30.9521Z" fill="#004441"/>
<path d="M26.6997 23.9512C26.6903 25.3136 25.8293 26.5246 24.5048 26.9693C24.2115 27.0734 24.0885 27.1964 24.1263 27.5086C24.1452 27.641 24.1358 27.783 24.1169 27.9154C24.0506 28.3128 23.7952 28.5115 23.4167 28.5493C23.0572 28.5872 22.6409 28.2939 22.6788 27.9249C22.745 27.2248 22.3855 26.9598 21.8178 26.6571C20.8528 26.1556 20.3797 25.2474 20.2662 24.1688C20.2094 23.6201 20.4838 23.2227 20.9474 23.1848C21.4015 23.1375 21.7232 23.4687 21.78 24.0269C21.8651 24.9919 22.5842 25.6447 23.5492 25.6258C24.4196 25.6164 25.1481 24.9068 25.1954 24.0364C25.2427 23.1186 24.6278 22.3428 23.6816 22.2387C22.991 22.163 22.3192 22.0874 21.7232 21.6805C20.7014 20.9804 20.1905 19.9964 20.2756 18.776C20.3608 17.5176 21.0136 16.5715 22.1868 16.0701C22.5558 15.9092 22.6788 15.72 22.6409 15.3416C22.6031 15.001 22.6977 14.6793 23.0288 14.4995C23.483 14.2441 24.0412 14.5279 24.1169 15.0483C24.1358 15.1807 24.1452 15.3227 24.1263 15.4551C24.0979 15.7389 24.202 15.8619 24.4858 15.9565C25.8009 16.4201 26.52 17.3757 26.6903 18.7476C26.7376 19.1355 26.6524 19.4666 26.2929 19.6653C25.782 19.9397 25.2522 19.5896 25.186 18.9273C25.0819 17.8299 24.1831 17.1297 23.1329 17.3379C22.3287 17.4987 21.761 18.2083 21.7705 19.0503C21.7894 19.864 22.3665 20.5547 23.1707 20.6871C23.5492 20.7533 23.9466 20.7533 24.325 20.848C25.7253 21.198 26.7092 22.4942 26.6997 23.9512Z" fill="#0EB2AC"/>
<path d="M22.7259 4.89612C22.7259 3.71348 22.7164 2.53084 22.7259 1.3482C22.7353 0.704846 23.3409 0.316939 23.8234 0.65754C24.0126 0.789996 24.1924 1.08329 24.1924 1.31036C24.2207 3.6851 24.2113 6.0693 24.2018 8.44405C24.2018 8.89818 23.8896 9.19148 23.4828 9.20094C23.057 9.2104 22.7259 8.90764 22.7259 8.43459C22.7164 7.26141 22.7259 6.07876 22.7259 4.89612Z" fill="#004441"/>
<path d="M29.8782 6.74102C29.8782 7.29922 29.8877 7.84797 29.8782 8.40617C29.8688 8.88869 29.5755 9.20091 29.1592 9.21037C28.724 9.21983 28.4023 8.90761 28.3928 8.40617C28.3834 7.31814 28.3834 6.22065 28.3928 5.13262C28.4023 4.63118 28.724 4.30951 29.1592 4.32843C29.5849 4.33789 29.8688 4.65011 29.8782 5.13262C29.8877 5.66245 29.8782 6.20173 29.8782 6.74102Z" fill="#004441"/>
<path d="M17.0687 6.76977C17.0687 6.23048 17.0592 5.6912 17.0687 5.15192C17.0781 4.63155 17.3714 4.31934 17.8161 4.31934C18.2608 4.31934 18.5541 4.63155 18.5635 5.15192C18.573 6.23048 18.573 7.30905 18.5635 8.38762C18.5635 8.89852 18.2608 9.2202 17.8161 9.2202C17.3809 9.2202 17.0781 8.89852 17.0687 8.38762C17.0592 7.83888 17.0687 7.30905 17.0687 6.76977Z" fill="#004441"/>
</g>
</g>
<defs>
<clipPath id="clip0_634_2989">
<rect width="46" height="46" fill="white" transform="translate(0 0.534668)"/>
</clipPath>
<clipPath id="clip1_634_2989">
<rect width="40.5125" height="46" fill="white" transform="translate(2.74414 0.534668)"/>
</clipPath>
</defs>
</svg>
