<svg width="40" height="40" viewBox="0 0 40 40" fill="none" xmlns="http://www.w3.org/2000/svg">
<circle cx="20" cy="20" r="20" fill="#0EB2AC" fill-opacity="0.1"/>
<g clip-path="url(#clip0_634_3516)">
<path d="M25.4621 16.8552V15.6964C25.4621 14.1856 24.862 12.7367 23.7937 11.6684C22.7254 10.6002 21.2765 10 19.7657 10C18.2549 10 16.806 10.6002 15.7377 11.6684C14.6694 12.7367 14.0693 14.1856 14.0693 15.6964V16.8552C13.3445 17.1716 12.7276 17.6922 12.294 18.3536C11.8604 19.0149 11.629 19.7883 11.6279 20.5791V25.4617C11.6292 26.5405 12.0583 27.5747 12.8211 28.3374C13.5839 29.1002 14.6181 29.5293 15.6968 29.5306H23.8346C24.9133 29.5293 25.9475 29.1002 26.7103 28.3374C27.4731 27.5747 27.9022 26.5405 27.9035 25.4617V20.5791C27.9024 19.7883 27.671 19.0149 27.2374 18.3536C26.8038 17.6922 26.1869 17.1716 25.4621 16.8552ZM15.6968 15.6964C15.6968 14.6173 16.1255 13.5824 16.8886 12.8193C17.6516 12.0562 18.6866 11.6276 19.7657 11.6276C20.8448 11.6276 21.8798 12.0562 22.6428 12.8193C23.4059 13.5824 23.8346 14.6173 23.8346 15.6964V16.5102H15.6968V15.6964ZM26.2759 25.4617C26.2759 26.1092 26.0187 26.7302 25.5609 27.188C25.103 27.6459 24.4821 27.9031 23.8346 27.9031H15.6968C15.0493 27.9031 14.4284 27.6459 13.9705 27.188C13.5127 26.7302 13.2555 26.1092 13.2555 25.4617V20.5791C13.2555 19.9316 13.5127 19.3106 13.9705 18.8528C14.4284 18.395 15.0493 18.1378 15.6968 18.1378H23.8346C24.4821 18.1378 25.103 18.395 25.5609 18.8528C26.0187 19.3106 26.2759 19.9316 26.2759 20.5791V25.4617Z" fill="#0EB2AC"/>
<path d="M19.7669 21.3926C19.5511 21.3926 19.3441 21.4783 19.1915 21.6309C19.0389 21.7836 18.9531 21.9906 18.9531 22.2064V23.834C18.9531 24.0499 19.0389 24.2569 19.1915 24.4095C19.3441 24.5621 19.5511 24.6478 19.7669 24.6478C19.9828 24.6478 20.1898 24.5621 20.3424 24.4095C20.495 24.2569 20.5808 24.0499 20.5808 23.834V22.2064C20.5808 21.9906 20.495 21.7836 20.3424 21.6309C20.1898 21.4783 19.9828 21.3926 19.7669 21.3926Z" fill="#0EB2AC"/>
</g>
<defs>
<clipPath id="clip0_634_3516">
<rect width="19.5306" height="19.5306" fill="white" transform="translate(10 10)"/>
</clipPath>
</defs>
</svg>
