<svg width="46" height="47" viewBox="0 0 46 47" fill="none" xmlns="http://www.w3.org/2000/svg">
<g clip-path="url(#clip0_634_3008)">
<path d="M36.0371 29.8737C37.6634 29.0413 39.2642 28.2089 40.865 27.4021C42.4402 26.6081 44.2202 26.9538 45.3088 28.2217C46.3717 29.4639 46.1924 30.975 44.8349 31.8971C41.1467 34.3815 37.4457 36.8659 33.7447 39.3503C32.5153 40.1827 31.2603 40.9767 30.0565 41.8347C28.0332 43.269 25.8177 43.6788 23.3717 43.3586C20.3494 42.9616 17.3143 42.6671 14.2793 42.3469C13.0242 42.2061 11.8589 42.6543 10.6039 42.872C10.6935 43.333 10.7832 43.7428 10.8728 44.1654C11.0137 44.8314 10.8088 45.1643 10.13 45.3052C8.27313 45.7022 6.41623 46.0992 4.55932 46.4962C3.88059 46.637 3.56044 46.4449 3.41957 45.7662C2.58716 41.8347 1.76757 37.9032 0.93516 33.9717C0.62781 32.5246 0.320461 31.0647 0.0259174 29.6175C-0.102145 28.99 0.0899485 28.6571 0.704648 28.529C2.58716 28.1064 4.46968 27.6966 6.365 27.2996C7.04374 27.1587 7.32547 27.3636 7.47915 28.068C7.63282 28.7339 7.77369 29.3998 7.90175 30.0145C8.78538 29.6175 9.61779 29.1437 10.5014 28.8492C13.1651 27.9783 15.752 28.2473 18.2364 29.5535C19.5426 30.2451 20.8617 30.9238 22.1679 31.6409C23.0131 32.102 23.8199 32.102 24.6779 31.6537C26.5348 30.6805 28.3917 29.7456 30.2486 28.7851C32.4897 27.6326 34.321 27.9655 36.0371 29.8737ZM13.4725 36.0847C13.6389 36.1103 13.7798 36.1359 13.9079 36.1615C16.3026 36.7378 18.6846 37.3141 21.0794 37.8648C22.821 38.2746 24.4858 38.0569 26.0226 37.1604C28.8656 35.4956 31.6829 33.818 34.5131 32.1404C35.115 31.7818 35.1918 31.3464 34.7949 30.7829C34.0137 29.6688 32.5794 29.323 31.2987 29.9761C29.301 30.9878 27.316 32.0123 25.331 33.0368C24.0248 33.7155 22.7314 33.6899 21.4379 32.9856C20.1445 32.2812 18.8511 31.5897 17.5448 30.9238C14.4842 29.3486 11.5259 29.5535 8.67013 31.4616C8.34997 31.6793 8.28594 31.8843 8.36278 32.2428C8.84941 34.4711 9.31044 36.7122 9.77146 38.9405C9.93794 39.7473 10.1172 40.5413 10.2965 41.3609C10.5783 41.2968 10.796 41.2584 11.0137 41.2072C12.115 40.9767 13.2291 40.6821 14.3689 40.8102C17.404 41.1432 20.4391 41.4249 23.4613 41.8219C25.6256 42.1036 27.5593 41.7322 29.365 40.4644C31.5933 38.8893 33.8856 37.4165 36.1523 35.8926C38.752 34.151 41.3516 32.4093 43.9513 30.6549C44.5916 30.2322 44.6428 29.7456 44.1306 29.1821C43.4903 28.4906 42.5042 28.2985 41.6334 28.7467C40.0326 29.5535 38.4446 30.3731 36.8695 31.1927C36.7286 31.2695 36.5877 31.4616 36.5749 31.6153C36.4725 32.3965 36.0883 32.9984 35.4095 33.3954C32.5153 35.1114 29.6339 36.8531 26.7141 38.5435C25.0365 39.5168 23.2052 39.8369 21.3099 39.4655C19.5554 39.1198 17.8266 38.6587 16.0849 38.2489C15.1117 38.0184 14.1384 37.7879 13.1395 37.5446C13.242 37.0324 13.3444 36.5841 13.4725 36.0847ZM4.80264 44.8698C6.30097 44.5496 7.74808 44.2423 9.24641 43.9221C8.1963 38.9021 7.14618 33.9204 6.09607 28.926C4.58494 29.259 3.12503 29.5663 1.65231 29.8865C2.71523 34.9065 3.75253 39.8497 4.80264 44.8698Z" fill="#004441"/>
<path d="M4.94353 30.7319C5.05879 31.2442 5.14843 31.7052 5.26369 32.2175C4.77705 32.3199 4.30322 32.4224 3.77816 32.5376C3.67571 32.051 3.57326 31.5771 3.45801 31.0521C3.94464 30.9496 4.41848 30.8472 4.94353 30.7319Z" fill="#004441"/>
<path d="M4.47006 18.7068C4.02184 18.2842 3.67607 17.9641 3.30469 17.6183C3.43275 17.4902 3.5352 17.375 3.65046 17.2597C7.0313 13.8789 10.3993 10.498 13.7802 7.12999C14.4077 6.50248 14.715 6.50248 15.3425 7.12999C16.8537 8.64113 18.3648 10.1523 19.9144 11.7018C20.0552 11.5738 20.1833 11.4585 20.2986 11.3432C22.9879 8.65393 25.6772 5.96462 28.3665 3.27531C28.9684 2.67342 29.2885 2.67342 29.8904 3.27531C31.7986 5.18344 33.7067 7.09157 35.6148 8.9997C35.7429 9.12776 35.8325 9.28144 35.8966 9.37108C38.381 6.88667 40.7885 4.4791 43.1961 2.07153C42.6711 2.07153 42.0564 2.07153 41.4289 2.07153C41.4289 1.54647 41.4289 1.07264 41.4289 0.521973C41.6338 0.521973 41.8515 0.521973 42.0692 0.521973C43.0809 0.521973 44.0797 0.521973 45.0914 0.521973C45.7189 0.521973 46.0007 0.80371 46.0007 1.43122C46.0135 2.64781 46.0007 3.85159 46.0007 5.0938C45.4884 5.0938 45.0018 5.0938 44.4767 5.0938C44.4767 4.4791 44.4767 3.87721 44.4767 3.17286C44.2846 3.35215 44.1566 3.4546 44.0413 3.56986C41.6338 5.97743 39.2262 8.385 36.8186 10.7926C36.1783 11.4329 35.8838 11.4329 35.2306 10.7798C33.3353 8.88444 31.44 6.98912 29.5319 5.08099C29.4038 4.95293 29.2757 4.83767 29.1349 4.69681C28.994 4.82487 28.8659 4.94012 28.7379 5.06819C26.0614 7.74469 23.3849 10.4212 20.7084 13.0977C20.0809 13.7252 19.7735 13.7252 19.146 13.0977C17.6349 11.5866 16.1237 10.0626 14.6126 8.55148C11.2061 11.9707 7.82529 15.3516 4.47006 18.7068Z" fill="#0EB2AC"/>
<path d="M34.4993 20.09C34.4993 18.2587 34.4993 16.4147 34.4993 14.5834C34.4993 13.8278 34.7554 13.5845 35.511 13.5845C36.4074 13.5845 37.3039 13.5845 38.2003 13.5845C38.8278 13.5845 39.1095 13.8662 39.1095 14.4937C39.1095 18.2331 39.1095 21.9726 39.1095 25.712C39.1095 26.3395 38.8278 26.6212 38.2003 26.6212C37.2782 26.634 36.3434 26.634 35.4213 26.6212C34.7938 26.6212 34.5121 26.3395 34.5121 25.712C34.4865 23.8295 34.4993 21.9598 34.4993 20.09ZM37.5344 25.0589C37.5344 21.7292 37.5344 18.4252 37.5344 15.134C37.0221 15.134 36.5611 15.134 36.0617 15.134C36.0617 18.4508 36.0617 21.742 36.0617 25.0589C36.5483 25.0589 37.0221 25.0589 37.5344 25.0589Z" fill="#004441"/>
<path d="M20.6943 20.8196C20.6943 19.2572 20.6943 17.6821 20.6943 16.1197C20.6943 15.3385 20.9377 15.0952 21.7316 15.0952C22.5897 15.0952 23.4605 15.0952 24.3185 15.0952C25.01 15.0952 25.2918 15.3641 25.2918 16.0429C25.2918 19.2572 25.2918 22.4588 25.2918 25.6732C25.2918 26.3263 25.01 26.5952 24.3441 26.5952C23.4349 26.5952 22.5256 26.5952 21.6164 26.5952C20.9633 26.5952 20.6943 26.3135 20.6943 25.6476C20.6943 24.0468 20.6943 22.4332 20.6943 20.8196ZM23.7294 25.0585C23.7294 22.2411 23.7294 19.4621 23.7294 16.6832C23.2172 16.6832 22.7305 16.6832 22.2567 16.6832C22.2567 19.4878 22.2567 22.2667 22.2567 25.0585C22.7433 25.0585 23.2172 25.0585 23.7294 25.0585Z" fill="#004441"/>
<path d="M27.5975 21.9594C27.5975 20.7556 27.5975 19.5646 27.5975 18.3609C27.5975 17.6693 27.8664 17.4004 28.558 17.4004C29.4672 17.4004 30.3764 17.4004 31.2857 17.4004C31.9132 17.4004 32.1949 17.6821 32.1949 18.3096C32.1949 20.7684 32.1949 23.2272 32.1949 25.686C32.1949 26.3135 31.9132 26.5953 31.2857 26.5953C30.3636 26.6081 29.4288 26.6081 28.5067 26.5953C27.8792 26.5953 27.5975 26.3135 27.5975 25.686C27.5847 24.4566 27.5975 23.2016 27.5975 21.9594ZM30.6454 18.9628C30.1203 18.9628 29.6465 18.9628 29.1598 18.9628C29.1598 20.9989 29.1598 23.0223 29.1598 25.0329C29.6721 25.0329 30.1587 25.0329 30.6454 25.0329C30.6454 23.0095 30.6454 20.9989 30.6454 18.9628Z" fill="#004441"/>
<path d="M18.3894 23.5474C18.3894 24.2646 18.3894 24.9817 18.3894 25.6989C18.3894 26.3264 18.1077 26.6081 17.4802 26.6081C16.5581 26.6209 15.6233 26.6209 14.7012 26.6081C14.0737 26.6081 13.792 26.3264 13.792 25.6989C13.792 24.2646 13.792 22.8175 13.792 21.3832C13.792 20.7557 14.0737 20.474 14.7012 20.474C15.6233 20.474 16.5581 20.4611 17.4802 20.474C18.1077 20.474 18.3894 20.7557 18.3894 21.3832C18.4022 22.1003 18.3894 22.8175 18.3894 23.5474ZM15.3415 22.0235C15.3415 23.0608 15.3415 24.0469 15.3415 25.0458C15.8538 25.0458 16.3276 25.0458 16.8143 25.0458C16.8143 24.0213 16.8143 23.0352 16.8143 22.0235C16.3148 22.0235 15.8538 22.0235 15.3415 22.0235Z" fill="#004441"/>
</g>
<defs>
<clipPath id="clip0_634_3008">
<rect width="46" height="46" fill="white" transform="translate(0 0.534668)"/>
</clipPath>
</defs>
</svg>
